<svg width="295" height="66" viewBox="0 0 295 66" fill="none" xmlns="http://www.w3.org/2000/svg">
<path d="M0.928 54V7.28H8.928V26.032H21.472V7.28H29.472V54H21.472V33.456H8.928V54H0.928ZM53.639 54.64C50.6523 54.64 48.0497 54.064 45.831 52.912C43.6123 51.76 41.8843 50.16 40.647 48.112C39.4523 46.0213 38.855 43.5893 38.855 40.816V31.984C38.855 29.2107 39.4523 26.8 40.647 24.752C41.8843 22.6613 43.6123 21.04 45.831 19.888C48.0497 18.736 50.6523 18.16 53.639 18.16C56.583 18.16 59.143 18.736 61.319 19.888C63.5377 21.04 65.2443 22.6613 66.439 24.752C67.6763 26.8 68.295 29.2107 68.295 31.984V38.32H46.599V40.816C46.599 43.2907 47.1963 45.168 48.391 46.448C49.5857 47.6853 51.3563 48.304 53.703 48.304C55.495 48.304 56.9457 48.0053 58.055 47.408C59.1643 46.768 59.8683 45.8507 60.167 44.656H68.039C67.4417 47.6853 65.8203 50.1173 63.175 51.952C60.5723 53.744 57.3937 54.64 53.639 54.64ZM60.551 33.84V31.92C60.551 29.488 59.975 27.632 58.823 26.352C57.671 25.0293 55.943 24.368 53.639 24.368C51.335 24.368 49.5857 25.0293 48.391 26.352C47.1963 27.6747 46.599 29.552 46.599 31.984V33.328L61.127 33.2L60.551 33.84ZM95.79 54C92.4193 54 89.774 53.0613 87.854 51.184C85.9767 49.3067 85.038 46.7253 85.038 43.44V26.032H75.502V18.8H85.038V8.88H93.102V18.8H106.606V26.032H93.102V43.44C93.102 45.6587 94.19 46.768 96.366 46.768H105.966V54H95.79ZM134.165 54C130.794 54 128.149 53.0613 126.229 51.184C124.352 49.3067 123.413 46.7253 123.413 43.44V26.032H113.877V18.8H123.413V8.88H131.477V18.8H144.981V26.032H131.477V43.44C131.477 45.6587 132.565 46.768 134.741 46.768H144.341V54H134.165ZM160.124 65.52L165.052 52.08L151.932 18.8H160.7L167.228 36.784C167.569 37.7653 167.911 38.96 168.252 40.368C168.593 41.7333 168.849 42.864 169.02 43.76C169.233 42.864 169.511 41.7333 169.852 40.368C170.193 38.96 170.535 37.7653 170.876 36.784L177.02 18.8H185.468L168.508 65.52H160.124Z" fill="white"/>
<path d="M207.075 28.912C205.283 28.912 203.832 28.4213 202.723 27.44C201.656 26.416 201.123 25.1147 201.123 23.536C201.123 21.9147 201.656 20.6133 202.723 19.632C203.832 18.6507 205.283 18.16 207.075 18.16C208.867 18.16 210.296 18.6507 211.363 19.632C212.472 20.6133 213.027 21.9147 213.027 23.536C213.027 25.1147 212.472 26.416 211.363 27.44C210.296 28.4213 208.867 28.912 207.075 28.912ZM207.075 54.64C205.283 54.64 203.832 54.1493 202.723 53.168C201.656 52.1867 201.123 50.8853 201.123 49.264C201.123 47.6427 201.656 46.3413 202.723 45.36C203.832 44.3787 205.283 43.888 207.075 43.888C208.867 43.888 210.296 44.3787 211.363 45.36C212.472 46.3413 213.027 47.6427 213.027 49.264C213.027 50.8853 212.472 52.1867 211.363 53.168C210.296 54.1493 208.867 54.64 207.075 54.64ZM263.665 61.04L286.065 0.879997H294.385L271.985 61.04H263.665ZM234.865 61.04L257.265 0.879997H265.585L243.185 61.04H234.865Z" fill="#2FE3BE"/>
</svg>
